<svg width="6" height="7" viewBox="0 0 6 7" fill="none" xmlns="http://www.w3.org/2000/svg">
<path d="M0.592575 4.78126C0.592575 3.70801 1.39484 3.08526 2.82556 3.00576L4.45685 2.91301V2.39626C4.45685 1.76026 4.04234 1.41576 3.2267 1.41576C2.55814 1.41576 2.10352 1.65426 1.96981 2.07826H0.819883C0.940224 1.05801 1.91632 0.395508 3.28018 0.395508C4.79113 0.395508 5.64689 1.13751 5.64689 2.39626V6.47726H4.49696V5.64251H4.40337C4.04234 6.23876 3.38716 6.58326 2.59826 6.58326C1.43496 6.57001 0.592575 5.88101 0.592575 4.78126ZM4.45685 4.27776V3.77426L2.98602 3.86701C2.157 3.92001 1.78261 4.19826 1.78261 4.72826C1.78261 5.27151 2.2506 5.57626 2.89242 5.57626C3.80166 5.57626 4.45685 5.01976 4.45685 4.27776Z" fill="white"/>
</svg>
